<!DOCTYPE svg PUBLIC "-//W3C//DTD SVG 1.1//EN" "http://www.w3.org/Graphics/SVG/1.1/DTD/svg11.dtd">
<svg xmlns="http://www.w3.org/2000/svg" viewBox="0 0 512 512">
<path fill="#ebc663" stroke="#ebc663" d="M228 4.082a952.919 952.919 0 0 1-23.741 3.905c-3.433.514-7.116 1.401-8.185 1.973-1.068.572-2.985 1.042-4.258 1.044-2.186.003-25.041 7.538-29.326 9.668-1.094.544-3.489 1.741-5.321 2.659-1.832.918-3.743 1.669-4.247 1.669-2.215 0-20.204 9.351-28.922 15.035-.825.538-2.175 1.28-3 1.648-.825.369-1.725.984-2 1.365-.275.382-3.733 2.781-7.685 5.33-3.952 2.549-7.777 5.194-8.5 5.878-.723.684-4.465 3.771-8.315 6.86C85.51 68.329 68.329 85.51 61.116 94.5c-3.089 3.85-6.176 7.592-6.86 8.315-.684.723-3.329 4.548-5.878 8.5s-4.915 7.41-5.257 7.685c-.761.613-2.892 3.966-3.812 6-.374.825-2.316 4.2-4.316 7.5C31.12 138.889 25 151.396 25 152.922c0 .504-.751 2.415-1.669 4.247-.918 1.832-2.115 4.227-2.659 5.321-2.13 4.285-9.665 27.14-9.668 29.326-.002 1.273-.472 3.19-1.044 4.258-.572 1.069-1.459 4.752-1.973 8.185-.996 6.662-2.475 15.764-4.03 24.801-1.263 7.336-1.231 46.793.043 53.88.549 3.058 1.466 8.71 2.037 12.56.571 3.85 1.412 9.508 1.87 12.573.458 3.065 1.342 6.523 1.963 7.684.622 1.161 1.132 3.154 1.134 4.427.003 2.352 7.775 25.684 9.768 29.326.599 1.094 2.126 4.69 3.394 7.99 2.993 7.792 13.415 28.039 16.141 31.357.613.746 1.582 2.154 2.154 3.128 2.203 3.756 10.535 15.869 11.803 17.159.734.746 3.604 4.329 6.379 7.963C66.525 424.808 87.398 445.704 95 451.5c2.886 2.2 5.978 4.709 6.873 5.575.895.866 3.877 3.075 6.627 4.908a3195.42 3195.42 0 0 1 12.174 8.175c3.945 2.663 7.57 4.842 8.055 4.842.485 0 2.432 1.145 4.327 2.544 3.253 2.402 15.159 8.456 16.631 8.456.375 0 2.511.84 4.747 1.866 13.403 6.151 15.772 7.134 17.192 7.134.865 0 2.99.601 4.723 1.335 5.99 2.539 10.169 3.874 14.651 4.682 2.475.446 5.767 1.3 7.315 1.897s4.39 1.086 6.316 1.086c1.925 0 4.435.5 5.577 1.111 5.391 2.886 44.045 5.494 60.052 4.053 21.802-1.963 29.518-2.908 30.915-3.786.729-.458 3.8-1.152 6.825-1.543 6.376-.823 16.388-3.136 20-4.62 1.375-.565 5.65-1.994 9.5-3.176 6.572-2.017 10.098-3.441 20.11-8.119 2.26-1.056 4.425-1.92 4.811-1.92 1.465 0 15.574-7.289 16.673-8.613.633-.763 1.695-1.387 2.359-1.387 1.042 0 19.161-11.457 20.547-12.992.275-.305 1.85-1.411 3.5-2.459 14.456-9.179 45.87-40.593 55.049-55.049 1.048-1.65 2.154-3.225 2.459-3.5 1.535-1.386 12.992-19.505 12.992-20.547 0-.664.624-1.726 1.387-2.359 1.324-1.099 8.613-15.208 8.613-16.673 0-.386.864-2.551 1.92-4.811 4.678-10.012 6.102-13.538 8.119-20.11 1.182-3.85 2.611-8.125 3.176-9.5 1.484-3.612 3.797-13.624 4.62-20 .391-3.025 1.085-6.096 1.543-6.825.878-1.397 1.823-9.113 3.786-30.915 1.441-16.007-1.167-54.661-4.053-60.052-.611-1.142-1.111-3.652-1.111-5.577 0-1.926-.489-4.768-1.086-6.316-.597-1.548-1.451-4.84-1.897-7.315-.808-4.482-2.143-8.661-4.682-14.651-.734-1.733-1.335-3.858-1.335-4.723 0-1.42-.983-3.789-7.134-17.192-1.026-2.236-1.866-4.372-1.866-4.747 0-1.472-6.054-13.378-8.456-16.631-1.399-1.895-2.544-3.842-2.544-4.327 0-.485-2.179-4.11-4.842-8.055a3195.42 3195.42 0 0 1-8.175-12.174c-1.833-2.75-4.042-5.732-4.908-6.627-.866-.895-3.375-3.987-5.575-6.873-5.796-7.602-26.692-28.475-34.393-34.357-3.634-2.775-7.217-5.645-7.963-6.379-1.29-1.268-13.403-9.6-17.159-11.803-.974-.572-2.382-1.541-3.128-2.154-3.318-2.726-23.565-13.148-31.357-16.141-3.3-1.268-6.896-2.795-7.99-3.394-3.642-1.993-26.974-9.765-29.326-9.768-1.273-.002-3.266-.512-4.427-1.134-1.161-.621-4.619-1.505-7.684-1.963-3.065-.458-8.723-1.299-12.573-1.87-3.85-.571-9.502-1.488-12.56-2.037-6.478-1.165-48.332-1.102-54.94.082" fill-rule="evenodd"/>
<path fill="#b9942c" stroke="#b9942c" d="M234.5 6.072c-15.995 1.139-45.587 6.844-51.627 9.954-.895.46-3.262 1.144-5.261 1.519s-3.881 1.081-4.182 1.568c-.301.488-1.221.887-2.044.887s-3.609.925-6.191 2.055c-2.582 1.13-5.595 2.443-6.695 2.919-32.265 13.95-57.952 31.493-81.558 55.7-23.26 23.852-38.499 46.674-51.968 77.826-.476 1.1-1.789 4.113-2.919 6.695-1.13 2.582-2.055 5.368-2.055 6.191 0 .823-.399 1.743-.887 2.044-.487.301-1.193 2.183-1.568 4.182-.375 1.999-1.059 4.366-1.519 5.261-1.532 2.975-4.249 14.344-7.534 31.531-4.066 21.265-4.078 62-.026 83.096 3.354 17.46 6.03 28.656 7.56 31.627.46.895 1.144 3.262 1.519 5.261s1.081 3.881 1.568 4.182c.488.301.902 1.309.921 2.239.019.93.903 3.491 1.966 5.691 1.063 2.2 1.947 4.366 1.966 4.813.019.447 1.132 3.147 2.473 6A843.594 843.594 0 0 1 30.911 367c2.823 6.25 6.842 13.251 12.643 22.024 2.719 4.112 5.121 7.926 5.338 8.476.374.948 9.928 13.756 14.458 19.38 2.756 3.423 29.414 30.038 32.65 32.598 7.852 6.212 12.671 9.688 23.173 16.713 6.42 4.295 12.126 7.809 12.679 7.809.553 0 1.6.588 2.327 1.307 1.957 1.936 26.79 13.668 29.05 13.725.699.017 2.145.692 3.212 1.5 1.068.807 2.704 1.468 3.636 1.468.932 0 2.983.672 4.559 1.494 1.575.821 3.787 1.496 4.914 1.5 1.128.003 2.478.394 3 .868 3.455 3.134 34.865 8.895 56.2 10.307 30.767 2.036 72.291-2.574 90.75-10.076 1.1-.447 4.7-1.644 8-2.661 3.3-1.016 8.475-2.921 11.5-4.233 11.256-4.882 13.605-5.889 18-7.711 2.475-1.027 6.435-3.131 8.8-4.677 2.365-1.546 4.565-2.811 4.888-2.811.588 0 26.369-17.006 27.312-18.016.275-.295 2.525-2.065 5-3.934 5.844-4.412 34.83-33.119 37.749-37.384 1.237-1.808 3.037-4.159 4-5.226 2.135-2.365 19.251-27.928 19.251-28.752 0-.323 1.265-2.523 2.811-4.888 1.546-2.365 3.65-6.325 4.677-8.8 1.822-4.395 2.829-6.744 7.711-18 1.312-3.025 3.217-8.2 4.233-11.5 1.017-3.3 2.214-6.9 2.661-8 7.502-18.459 12.112-59.983 10.076-90.75-1.412-21.335-7.173-52.745-10.307-56.2-.474-.522-.865-1.872-.868-3-.004-1.127-.679-3.339-1.5-4.914-.822-1.576-1.494-3.627-1.494-4.559 0-.932-.661-2.568-1.468-3.636-.808-1.067-1.483-2.513-1.5-3.212-.057-2.26-11.789-27.093-13.725-29.05-.719-.727-1.307-1.774-1.307-2.327 0-.553-3.514-6.259-7.809-12.679-7.025-10.502-10.501-15.321-16.713-23.173-2.56-3.236-29.175-29.894-32.598-32.65-5.624-4.53-18.432-14.084-19.38-14.458-.55-.217-4.364-2.619-8.476-5.338-8.773-5.801-15.774-9.82-22.024-12.643a843.594 843.594 0 0 1-9.687-4.472c-2.853-1.341-5.553-2.454-6-2.473-.447-.019-2.613-.903-4.813-1.966-2.2-1.063-4.761-1.947-5.691-1.966-.93-.019-1.938-.433-2.239-.921-.301-.487-2.183-1.193-4.182-1.568-1.999-.375-4.366-1.059-5.261-1.519-1.827-.941-11.067-3.416-18.627-4.99-26.961-5.614-47.769-6.973-76-4.964m-41.339 160.475c-.738 1.619-1.161 8.847-1.161 19.841 0 9.512-.295 24.116-.656 32.453L190.688 234h-17.523c-24.571 0-26.438 1.047-24.593 13.797 1.125 7.78-2.843 7.243 53.103 7.185 27.72-.03 50.834.214 51.363.541.568.352.962 9.511.962 22.396 0 11.991.286 23.89.636 26.441l.636 4.64h19.426l.646-9.75c.355-5.363.648-12.473.651-15.8.003-3.365.537-6.582 1.205-7.25.891-.891 10.899-1.2 38.845-1.2 44.498 0 40.955 1.067 40.955-12.329V254H253l-.015-8.25c-.021-11.384 1.16-10.685-19.326-11.426-16.885-.611-17.722-.737-18.167-2.732-.257-1.151-.598-16.042-.757-33.092-.159-17.05-.662-31.787-1.119-32.75-.702-1.48-2.252-1.75-10.062-1.75-8.924 0-9.272.085-10.393 2.547" fill-rule="evenodd"/>
<path fill="#1c7b0b" stroke="#1c7b0b" d="M230.5 18.566c-7.15.73-14.575 1.779-16.5 2.331-1.925.552-5.525 1.268-8 1.592-5.019.658-5.613.819-22.5 6.093-28.795 8.994-58.193 24.762-78.895 42.315-3.242 2.749-7.067 5.134-8.5 5.301-1.751.203-2.702.984-2.902 2.383-.164 1.144-4.214 6.149-9 11.121-26.136 27.149-44.501 58.117-55.627 93.798-5.43 17.414-5.452 17.495-6.514 24.024a554.635 554.635 0 0 1-1.941 11.131c-3.772 20.044-3.332 59.727.864 77.845.509 2.2 1.418 6.25 2.019 9 .601 2.75 1.489 6.8 1.973 9 7.443 33.8 31.849 77.022 59.574 105.5 4.552 4.675 8.433 9.4 8.625 10.5.207 1.189 1.593 2.406 3.419 3 1.689.55 6.183 3.508 9.988 6.572 12.941 10.426 38.123 26.148 46.917 29.293 2.2.786 7.15 2.859 11 4.605 3.85 1.747 11.725 4.677 17.5 6.513 9.372 2.98 13.803 4.109 29.85 7.613 21.639 4.725 63.003 4.657 86.15-.14 35.861-7.432 59.817-17.242 88.5-36.241 6.6-4.371 14.365-9.958 17.256-12.414 2.89-2.456 6.824-4.899 8.742-5.428 2.594-.716 3.65-1.655 4.126-3.668.351-1.488 4.759-6.98 9.795-12.205 24.557-25.478 42.331-55.055 53.487-89 3.51-10.679 5.139-16.952 8.05-31 4.797-23.147 4.865-64.511.14-86.15-3.43-15.71-4.642-20.478-7.589-29.85-1.817-5.775-4.745-13.65-6.507-17.5-1.763-3.85-3.849-8.8-4.635-11-8.06-22.538-39.554-62.533-65.865-83.644-25.056-20.103-62.707-39.089-89-44.879-11.321-2.493-14.372-3.16-18.5-4.045-16.554-3.55-44.148-4.547-65.5-2.366m-83.985 65.41c-1.098 1.777-1.783 10.781-1.098 14.433l.674 3.591h21.332c16.426 0 21.584.303 22.425 1.317.781.94.912 19.677.46 65.5L189.674 233h-20.215c-16.726 0-20.428.258-21.456 1.496-1.81 2.182-.931 20.305 1.046 21.556.831.525 23.103.924 52.09.933l50.64.015.598 21.25c.825 29.328 2.08 115.382 1.918 131.5l-.133 13.25h22.113l-.501-12.15c-.374-9.092-.159-12.803.857-14.75 1.03-1.973 1.358-8.274 1.363-26.15.004-16.976.341-23.885 1.206-24.75.889-.889 10.574-1.2 37.383-1.2h36.184l.603-2.25c1.375-5.131.696-19.511-.952-20.143-.87-.334-17.753-.607-37.519-.607h-35.937l.269-22.25.269-22.25 38.412-.262c26.322-.18 38.833-.612 39.75-1.372.952-.791 1.338-3.964 1.338-11.013 0-9.71-.05-9.922-2.565-10.878-1.542-.586-22.407-.975-52.304-.975h-49.739l-.092-8.427c-.051-4.636-.391-8.911-.755-9.5-.432-.699-6.866-1.073-18.44-1.073h-17.778l-.642-64.173c-.455-45.452-.327-64.554.44-65.477.798-.962 5.714-1.376 18.729-1.577l17.646-.273.32-5c.177-2.75.037-6.912-.311-9.25l-.632-4.25h-52.879c-33.314 0-53.103.361-53.483.976" fill-rule="evenodd"/>
<path fill="#145c05" stroke="#145c05" d="M94.219 78.75c-1.014 2.469-.901 351.902.114 352.917.459.458 72.684.833 160.5.833H414.5l.313-3.242.313-3.242-122.313-.478c-67.272-.262-127.263-.528-133.313-.59-6.05-.063-21.912.195-35.25.573l-24.25.687V77h-2.531c-1.471 0-2.833.733-3.25 1.75m381.448 98.917c-1.047 1.047-.779 5.333.333 5.333.55 0 1-1.35 1-3 0-3.107-.204-3.463-1.333-2.333m-2.016 7.148c-.467.723-1.089 4.998-1.382 9.5-.293 4.502-.939 8.7-1.436 9.329-.496.629-1.185 3.532-1.531 6.45-.345 2.918-1.227 6.453-1.959 7.856-.732 1.402-1.343 3.45-1.359 4.55-.015 1.1-1.636 6.5-3.601 12-1.966 5.5-3.796 10.9-4.068 12-.519 2.104-3.009 7.956-4.468 10.5a25.314 25.314 0 0 0-1.426 3c-.311.825-.986 2.175-1.5 3-.513.825-1.188 2.175-1.5 3-.311.825-.984 2.175-1.496 3-.511.825-1.366 2.4-1.899 3.5-.533 1.1-2.326 4.25-3.985 7-1.658 2.75-3.325 5.675-3.705 6.5-.38.825-.948 1.725-1.263 2-.315.275-2.13 2.75-4.032 5.5-6.003 8.676-18.903 24.199-25.849 31.106-7.457 7.415-28.623 25.394-29.895 25.394-.45 0-1.938 1.012-3.307 2.25-3.026 2.734-15.812 11.188-18.24 12.059-.962.346-1.75 1.092-1.75 1.66 0 .567-.873 1.031-1.941 1.031s-2.19.403-2.495.896c-.602.975-3.586 2.615-19.564 10.754-5.775 2.941-11.232 5.349-12.128 5.349-.895.001-2.187.676-2.872 1.501-.685.825-1.85 1.5-2.589 1.5-.739 0-3.046.737-5.127 1.639-2.081.901-4.909 2.073-6.284 2.605s-3.85 1.565-5.5 2.297c-1.65.732-4.462 1.621-6.25 1.975-1.788.353-3.25 1.029-3.25 1.5 0 .472-1.428.998-3.173 1.171-4.211.416-5.037 2.813-.969 2.813 1.663 0 3.278-.411 3.588-.913.311-.502 2.362-1.217 4.559-1.588s3.995-1.085 3.995-1.587 1.039-.912 2.309-.912c1.27 0 3.182-.661 4.25-1.468 1.067-.808 2.772-1.483 3.787-1.5 1.015-.018 3.04-.639 4.5-1.38 1.46-.742 4.454-2.141 6.654-3.11 2.2-.969 4.675-2.165 5.5-2.658.825-.493 2.175-1.152 3-1.463.825-.312 2.281-.984 3.236-1.494.955-.51 2.386-.927 3.179-.927.793 0 2.037-.573 2.764-1.273.726-.7 3.684-2.382 6.571-3.736 2.887-1.355 5.25-2.807 5.25-3.227 0-.42.655-.764 1.456-.764.8 0 3.163-1.17 5.25-2.6 2.087-1.43 4.694-3.004 5.794-3.498 2.292-1.028 5.764-3.141 6.5-3.955.275-.304 2.3-1.637 4.5-2.962 2.2-1.326 4.634-3.029 5.41-3.786.775-.756 3.25-2.526 5.5-3.931 2.249-1.406 5.698-3.954 7.663-5.662a813.121 813.121 0 0 1 8.5-7.244C409.901 327.327 438 295.593 438 291.447c0-.362 1.35-2.364 3-4.447s3-4.511 3-5.394.423-1.606.94-1.606c1.127 0 13.06-23.917 13.06-26.177 0-.868.675-2.138 1.5-2.823s1.514-2.202 1.532-3.372c.017-1.171.692-3.002 1.5-4.069.807-1.068 1.482-3.093 1.5-4.5.017-1.408.692-3.433 1.5-4.5.807-1.068 1.468-2.929 1.468-4.136 0-1.207.672-3.483 1.494-5.059.821-1.575 1.496-4.236 1.5-5.914.003-1.677.49-3.534 1.082-4.126.592-.592 1.193-3.269 1.335-5.95.142-2.681.801-6.187 1.463-7.792 1.36-3.296 1.153-18.898-.223-16.767M248.293 408.107c-.609.609-3.257 1.277-5.884 1.484-2.627.207-5.234.834-5.793 1.393-.559.559-2.515 1.016-4.348 1.016-1.833 0-4.948.675-6.922 1.5-1.975.825-5.673 1.503-8.218 1.506-2.545.004-5.917.679-7.492 1.5-1.576.822-5.401 1.497-8.5 1.5-3.1.004-6.925.679-8.5 1.5-1.576.822-5.225 1.494-8.111 1.494-7.431 0-14.525 1.1-14.525 2.252 0 1.347 19.382.499 21.133-.924.752-.612 4.934-1.286 9.293-1.498 5.054-.247 8.074-.829 8.333-1.608.259-.777 2.538-1.222 6.253-1.222 3.482 0 6.379-.53 7.167-1.311.734-.728 3.692-1.344 6.657-1.385 2.934-.042 5.837-.577 6.45-1.19.613-.613 2.643-1.114 4.513-1.114 1.869 0 4.817-.627 6.55-1.393 1.733-.766 3.967-1.663 4.964-1.993.998-.33 1.534-1.053 1.191-1.607-.821-1.328-2.831-1.28-4.211.1" fill-rule="evenodd"/>
</svg>