<svg xmlns="http://www.w3.org/2000/svg" version="1.1" width="92" height="32" style="shape-rendering:geometricPrecision; text-rendering:geometricPrecision; image-rendering:optimizeQuality; fill-rule:evenodd; clip-rule:evenodd" xmlns:xlink="http://www.w3.org/1999/xlink">
<g><path style="opacity:0.983" fill="#fefffe" d="M 576.5,-0.5 C 576.833,-0.5 577.167,-0.5 577.5,-0.5C 577.333,127.5 577.5,255.5 578,383.5C 578.402,399.834 586.235,410.667 601.5,416C 608.753,417.951 616.086,419.451 623.5,420.5C 621.058,436.151 618.725,451.818 616.5,467.5C 595.631,468.078 575.631,464.245 556.5,456C 539.996,446.817 529.496,432.983 525,414.5C 523.742,408.878 522.742,403.211 522,397.5C 521.5,268.167 521.333,138.834 521.5,9.5C 540.014,6.47167 558.348,3.13833 576.5,-0.5 Z"/></g>
<g><path style="opacity:0.985" fill="#fefffe" d="M 16.5,0.5 C 147.737,0.167693 278.903,0.501027 410,1.5C 411.656,48.0833 411.99,94.7499 411,141.5C 410.167,142.333 409.333,143.167 408.5,144C 401.5,144.667 394.5,144.667 387.5,144C 386.667,143.167 385.833,142.333 385,141.5C 385.108,118.265 379.442,96.598 368,76.5C 352.912,53.1181 331.412,39.9514 303.5,37C 248.833,36.3333 194.167,36.3333 139.5,37C 198,95.5 256.5,154 315,212.5C 315.706,214.971 315.373,217.305 314,219.5C 257.167,276.333 200.333,333.167 143.5,390C 196.5,390.667 249.5,390.667 302.5,390C 341.403,383.776 367.736,362.109 381.5,325C 390.833,324.333 400.167,324.333 409.5,325C 410.126,325.75 410.626,326.584 411,327.5C 411.667,373.5 411.667,419.5 411,465.5C 410.626,466.416 410.126,467.25 409.5,468C 273.833,468.667 138.167,468.667 2.5,468C 2,467.5 1.5,467 1,466.5C 0.333333,460.5 0.333333,454.5 1,448.5C 1.5,448 2,447.5 2.5,447C 9.75517,445.775 17.0885,445.108 24.5,445C 93.1667,376.333 161.833,307.667 230.5,239C 158.667,167.167 86.8333,95.3333 15,23.5C 13.4725,17.5851 13.1392,11.5851 14,5.5C 14.3661,3.54826 15.1995,1.88159 16.5,0.5 Z"/></g>
<g><path style="opacity:0.977" fill="#fefffe" d="M 827.5,469.5 C 825.167,469.5 822.833,469.5 820.5,469.5C 781.82,469.999 747.153,458.499 716.5,435C 688.251,408.332 672.418,375.498 669,336.5C 662.777,292.046 670.11,250.046 691,210.5C 718.319,167.09 757.819,145.09 809.5,144.5C 875.674,144.987 916.507,177.32 932,241.5C 937.171,268.281 939.004,295.281 937.5,322.5C 867.167,322.5 796.833,322.5 726.5,322.5C 730.347,388.179 765.18,420.513 831,419.5C 857.59,419.93 883.09,414.93 907.5,404.5C 908.086,404.709 908.586,405.043 909,405.5C 911.446,420.343 913.946,435.176 916.5,450C 916.167,450.833 915.833,451.667 915.5,452.5C 887.074,463.568 857.741,469.234 827.5,469.5 Z M 796.5,192.5 C 842.292,190.126 869.459,211.46 878,256.5C 878.952,263.136 879.452,269.803 879.5,276.5C 828.833,276.5 778.167,276.5 727.5,276.5C 729.665,245.316 743.331,220.816 768.5,203C 777.331,197.784 786.664,194.284 796.5,192.5 Z"/></g>
<g><path style="opacity:0.977" fill="#fefffe" d="M 1389.5,469.5 C 1387.17,469.5 1384.83,469.5 1382.5,469.5C 1343.04,469.957 1307.7,458.124 1276.5,434C 1248.8,406.757 1233.3,373.591 1230,334.5C 1224.74,293.224 1231.07,253.891 1249,216.5C 1279.44,163.857 1325.27,140.024 1386.5,145C 1441.1,150.606 1475.94,179.773 1491,232.5C 1498.31,262.109 1500.81,292.109 1498.5,322.5C 1428.17,322.5 1357.83,322.5 1287.5,322.5C 1291.4,388.235 1326.23,420.569 1392,419.5C 1418.88,419.824 1444.71,414.824 1469.5,404.5C 1472.43,418.07 1474.93,431.737 1477,445.5C 1477.81,447.902 1477.65,450.235 1476.5,452.5C 1448.4,463.454 1419.4,469.12 1389.5,469.5 Z M 1357.5,192.5 C 1406.02,190.176 1433.52,213.176 1440,261.5C 1440.5,266.489 1440.67,271.489 1440.5,276.5C 1389.83,276.5 1339.17,276.5 1288.5,276.5C 1290.93,249.135 1302.27,226.302 1322.5,208C 1333.03,200.062 1344.7,194.895 1357.5,192.5 Z"/></g>
<g><path style="opacity:0.982" fill="#fefffe" d="M 1111.5,145.5 C 1138.98,144.348 1165.98,147.348 1192.5,154.5C 1192.83,155 1193.17,155.5 1193.5,156C 1190.18,171.782 1187.18,187.615 1184.5,203.5C 1147.59,192.05 1110.59,191.716 1073.5,202.5C 1072.5,288.831 1072.17,375.164 1072.5,461.5C 1053.83,461.5 1035.17,461.5 1016.5,461.5C 1016.33,362.833 1016.5,264.166 1017,165.5C 1047.67,154.4 1079.17,147.734 1111.5,145.5 Z"/></g>
<g><path style="opacity:0.979" fill="#fefffe" d="M 1676.5,145.5 C 1689.5,145.333 1702.5,145.5 1715.5,146C 1742.77,147.059 1765.94,157.225 1785,176.5C 1829.03,147.162 1876.87,138.662 1928.5,151C 1963.57,162.415 1985.07,186.249 1993,222.5C 1994.71,231.109 1996.04,239.775 1997,248.5C 1998.46,319.482 1998.96,390.482 1998.5,461.5C 1979.83,461.5 1961.17,461.5 1942.5,461.5C 1942.67,398.832 1942.5,336.166 1942,273.5C 1941.95,254.897 1937.95,237.23 1930,220.5C 1916.95,201.519 1898.78,193.185 1875.5,195.5C 1852.02,194.719 1830.35,200.552 1810.5,213C 1809.1,214.062 1808.1,215.395 1807.5,217C 1812.38,233.819 1815.21,250.986 1816,268.5C 1816.5,332.832 1816.67,397.166 1816.5,461.5C 1797.83,461.5 1779.17,461.5 1760.5,461.5C 1760.67,402.166 1760.5,342.832 1760,283.5C 1759.79,264.691 1756.79,246.357 1751,228.5C 1743.94,211.431 1731.44,200.931 1713.5,197C 1687.02,194.562 1660.69,195.729 1634.5,200.5C 1634.5,287.5 1634.5,374.5 1634.5,461.5C 1615.5,461.5 1596.5,461.5 1577.5,461.5C 1577.5,361.167 1577.5,260.833 1577.5,160.5C 1610.26,152.982 1643.26,147.982 1676.5,145.5 Z"/></g>
</svg>