<svg shape-rendering="geometricPrecision" text-rendering="geometricPrecision" image-rendering="optimizeQuality" fill-rule="evenodd" clip-rule="evenodd" viewBox="0 0 2000 470">
  <path fill="#fefffe" d="M576.5-.5h1c-.167 128 0 256 .5 384 .402 16.334 8.235 27.167 23.5 32.5a183.675 183.675 0 0 0 22 4.5 3433.752 3433.752 0 0 0-7 47c-20.869.578-40.869-3.255-60-11.5-16.504-9.183-27.004-23.017-31.5-41.5a189.805 189.805 0 0 1-3-17 75234.55 75234.55 0 0 1-.5-388 1566.719 1566.719 0 0 0 55-10Z" opacity=".983"/>
  <path fill="#fefffe" d="M16.5.5C147.737.168 278.903.501 410 1.5c1.656 46.583 1.99 93.25 1 140l-2.5 2.5c-7 .667-14 .667-21 0l-2.5-2.5c.108-23.235-5.558-44.902-17-65-15.088-23.382-36.588-36.549-64.5-39.5a6723.914 6723.914 0 0 0-164 0L315 212.5c.706 2.471.373 4.805-1 7L143.5 390c53 .667 106 .667 159 0 38.903-6.224 65.236-27.891 79-65a196.152 196.152 0 0 1 28 0 9.454 9.454 0 0 1 1.5 2.5c.667 46 .667 92 0 138a9.454 9.454 0 0 1-1.5 2.5c-135.667.667-271.333.667-407 0L1 466.5c-.667-6-.667-12 0-18l1.5-1.5a144.602 144.602 0 0 1 22-2l206-206L15 23.5c-1.527-5.915-1.86-11.915-1-18 .366-1.952 1.2-3.618 2.5-5Z" opacity=".985"/>
  <path fill="#fefffe" d="M827.5 469.5h-7c-38.68.499-73.347-11.001-104-34.5-28.249-26.668-44.082-59.502-47.5-98.5-6.223-44.454 1.11-86.454 22-126 27.319-43.41 66.819-65.41 118.5-66 66.174.487 107.007 32.82 122.5 97a329.7 329.7 0 0 1 5.5 81h-211c3.847 65.679 38.68 98.013 104.5 97 26.59.43 52.09-4.57 76.5-15a3.647 3.647 0 0 1 1.5 1 6190.607 6190.607 0 0 0 7.5 44.5l-1 2.5c-28.426 11.068-57.759 16.734-88 17Zm-31-277c45.792-2.374 72.959 18.96 81.5 64a148.16 148.16 0 0 1 1.5 20h-152c2.165-31.184 15.831-55.684 41-73.5 8.831-5.216 18.164-8.716 28-10.5ZM1389.5 469.5h-7c-39.46.457-74.8-11.376-106-35.5-27.7-27.243-43.2-60.409-46.5-99.5-5.26-41.276 1.07-80.609 19-118 30.44-52.643 76.27-76.476 137.5-71.5 54.6 5.606 89.44 34.773 104.5 87.5 7.31 29.609 9.81 59.609 7.5 90h-211c3.9 65.735 38.73 98.069 104.5 97 26.88.324 52.71-4.676 77.5-15a657.698 657.698 0 0 1 7.5 41c.81 2.402.65 4.735-.5 7-28.1 10.954-57.1 16.62-87 17Zm-32-277c48.52-2.324 76.02 20.676 82.5 69 .5 4.989.67 9.989.5 15h-152c2.43-27.365 13.77-50.198 34-68.5 10.53-7.938 22.2-13.105 35-15.5Z" opacity=".977"/>
  <path fill="#fefffe" d="M1111.5 145.5c27.48-1.152 54.48 1.848 81 9 .33.5.67 1 1 1.5a1202.435 1202.435 0 0 0-9 47.5c-36.91-11.45-73.91-11.784-111-1-1 86.331-1.33 172.664-1 259h-56c-.17-98.667 0-197.334.5-296 30.67-11.1 62.17-17.766 94.5-20Z" opacity=".982"/>
  <path fill="#fefffe" d="M1676.5 145.5c13-.167 26 0 39 .5 27.27 1.059 50.44 11.225 69.5 30.5 44.03-29.338 91.87-37.838 143.5-25.5 35.07 11.415 56.57 35.249 64.5 71.5a304.084 304.084 0 0 1 4 26 7876.468 7876.468 0 0 1 1.5 213h-56c.17-62.668 0-125.334-.5-188-.05-18.603-4.05-36.27-12-53-13.05-18.981-31.22-27.315-54.5-25-23.48-.781-45.15 5.052-65 17.5-1.4 1.062-2.4 2.395-3 4a219.688 219.688 0 0 1 8.5 51.5c.5 64.332.67 128.666.5 193h-56c.17-59.334 0-118.668-.5-178-.21-18.809-3.21-37.143-9-55-7.06-17.069-19.56-27.569-37.5-31.5-26.48-2.438-52.81-1.271-79 3.5v261h-57v-301c32.76-7.518 65.76-12.518 99-15Z" opacity=".979"/>
</svg>
