<svg data-v-423bf9ae="" xmlns="http://www.w3.org/2000/svg" viewBox="0 0 212.3828884018438 60" class="font"><!----><!----><!----><g data-v-423bf9ae="" id="34fbac3e-981b-465f-a58b-b4ba2e595238" fill="white" transform="matrix(6.109979823280842,0,0,6.109979823280842,-5.376784999533967,-26.33401221188742)"><path d="M0.88 4.31L0.88 14L2.31 14L2.31 4.31ZM11.02 10.57C11.00 8.48 9.48 6.99 7.35 6.99C5.22 6.99 3.67 8.48 3.67 10.56C3.67 12.63 5.22 14.13 7.35 14.13C9.04 14.13 10.51 13.03 10.91 11.51L9.45 11.51C9.18 12.33 8.34 12.95 7.36 12.95C6.17 12.95 5.26 12.15 5.08 11.00L10.98 11.00C11.00 10.86 11.02 10.71 11.02 10.57ZM7.36 8.16C8.50 8.16 9.41 8.88 9.65 9.90L5.12 9.90C5.38 8.86 6.24 8.16 7.36 8.16ZM13.79 8.72L13.79 7.11L12.36 7.11L12.36 14L13.79 14L13.79 10.60C13.79 9.18 14.78 8.34 16.38 8.34L16.38 6.93C15.16 6.93 14.25 7.59 13.79 8.72ZM24.21 10.57C24.19 8.48 22.67 6.99 20.54 6.99C18.41 6.99 16.86 8.48 16.86 10.56C16.86 12.63 18.41 14.13 20.54 14.13C22.23 14.13 23.70 13.03 24.09 11.51L22.64 11.51C22.37 12.33 21.53 12.95 20.55 12.95C19.36 12.95 18.45 12.15 18.27 11.00L24.16 11.00C24.19 10.86 24.21 10.71 24.21 10.57ZM20.55 8.16C21.69 8.16 22.60 8.88 22.83 9.90L18.31 9.90C18.56 8.86 19.43 8.16 20.55 8.16ZM33.25 6.99C32.24 6.99 31.44 7.48 31.05 8.27C30.69 7.46 29.95 6.99 28.98 6.99C28.11 6.99 27.38 7.36 26.98 8.04L26.98 7.11L25.55 7.11L25.55 14L26.98 14L26.98 9.67C26.98 8.74 27.54 8.13 28.43 8.13C29.34 8.13 29.88 8.74 29.88 9.67L29.88 14L31.32 14L31.32 9.67C31.32 8.74 31.88 8.13 32.77 8.13C33.67 8.13 34.22 8.74 34.22 9.67L34.22 14L35.64 14L35.64 9.49C35.64 7.98 34.66 6.99 33.25 6.99Z"></path></g><!----><!----></svg>